# xmcd CD database file
#
# Track frame offsets:
#	150
#	31238
#	53041
#	78980
#	104846
#	125149
#	154741
#	176825
#	199944
#	217589
#	240279
#	266756
#	290247
#
# Disc length: 4068 seconds
#
# Revision: 0
# Processed by: cddbd v1.4PL0 Copyright (c) Steve Scherf et al.
# Submitted via: CDex 1.50
#
DISCID=bd0fe20d
DTITLE=Boptale Trio - Natural Beauty
DYEAR=1997
DGENRE=Jazz
TTITLE0=Willem Hellebreker - Groove Garden
TTITLE1=Willem Hellebreker - State of Grace
TTITLE2=Willem Hellebreker - Natural Beauty
TTITLE3=Thelonious Monk - Evidence
TTITLE4=Han Slinger - Say What?!
TTITLE5=Richard Rogers and Lorenz Hart - My Romance
TTITLE6=Willem Hellebreker - Friends
TTITLE7=Willem Hellebreker - Am I You
TTITLE8=Maurice Rugebregt - Ishara
TTITLE9=George Gershwin and Ira Gershwin - But Not For Me
TTITLE10=Duke Ellington - Mood Indigo
TTITLE11=George Fragos and Jack Baker - I Hear a Rhapsody
TTITLE12=Willem Hellebreker - Between You And Me
EXTD=YEAR: 1997
EXTT0=
EXTT1=
EXTT2=
EXTT3=
EXTT4=
EXTT5=
EXTT6=
EXTT7=
EXTT8=
EXTT9=
EXTT10=
EXTT11=
EXTT12=
PLAYORDER=
